<svg version="1.1" id="Layer_1" xmlns="http://www.w3.org/2000/svg" xmlns:xlink="http://www.w3.org/1999/xlink" x="0px" y="0px"
	 width="100%" viewBox="0 0 64 64" enable-background="new 0 0 64 64" xml:space="preserve">
<path fill="#63D96F" opacity="1.000000" stroke="none" 
	d="
M65.000000,8.000000 
	C65.000000,12.689256 65.000000,17.378511 64.646606,22.517532 
	C61.593025,26.659395 58.892830,30.351492 56.124313,33.621288 
	C55.784039,24.417162 52.062695,17.572283 44.449444,13.078780 
	C30.143303,4.634982 10.073664,14.012816 9.495188,33.945625 
	C7.816915,32.272865 6.366675,30.765841 5.124150,29.103550 
	C3.655740,27.139069 2.366761,25.040464 1.000000,23.000000 
	C1.000000,18.310745 1.000000,13.621490 1.360992,8.286863 
	C22.829311,5.174138 43.925991,4.586636 65.000000,8.000000 
z"/>
<path fill="#48C658" opacity="1.000000" stroke="none" 
	d="
M56.192631,34.043587 
	C58.892830,30.351492 61.593025,26.659395 64.646606,22.983650 
	C65.000000,33.687561 65.000000,44.375122 64.642128,55.454475 
	C61.781345,59.219528 58.413914,60.133827 54.294197,60.065109 
	C42.532196,59.868919 30.764669,59.963890 18.999569,60.009617 
	C12.816701,60.033649 6.566147,60.604015 1.000000,57.000000 
	C1.000000,45.979103 1.000000,34.958210 1.000000,23.468658 
	C2.366761,25.040464 3.655740,27.139069 5.124150,29.103550 
	C6.366675,30.765841 7.816915,32.272865 9.607618,34.328766 
	C10.204515,39.452549 14.121675,43.793396 11.159916,48.689255 
	C11.441078,48.845474 11.722239,49.001694 11.869087,49.448647 
	C12.112838,50.461670 12.308407,51.537853 12.901282,51.843586 
	C15.189154,53.023384 17.827744,53.623917 19.933712,55.038628 
	C30.608553,62.209572 44.984653,59.575596 52.015366,48.828625 
	C52.865349,47.529358 52.787766,45.623276 53.200447,43.642094 
	C54.238079,40.205029 55.215355,37.124310 56.192631,34.043587 
z"/>
<path fill="#229A39" opacity="1.000000" stroke="none" 
	d="
M1.000000,57.416664 
	C6.566147,60.604015 12.816701,60.033649 18.999569,60.009617 
	C30.764669,59.963890 42.532196,59.868919 54.294197,60.065109 
	C58.413914,60.133827 61.781345,59.219528 64.642128,55.923134 
	C65.000000,57.714359 65.000000,59.428715 64.652237,61.442181 
	C63.536320,62.827526 62.768162,63.913761 62.000000,65.000000 
	C42.979103,65.000000 23.958210,65.000000 4.599034,64.653534 
	C3.173837,63.538044 2.086919,62.769020 1.000001,62.000000 
	C1.000000,60.611111 1.000000,59.222221 1.000000,57.416664 
z"/>
<path fill="#72FD80" opacity="1.000000" stroke="none" 
	d="
M65.000000,7.600004 
	C43.925991,4.586636 22.829311,5.174138 1.360992,7.820746 
	C1.000000,6.933331 1.000000,5.866662 1.273843,4.762855 
	C2.365124,3.483812 3.182562,2.241906 4.000000,1.000000 
	C23.020895,1.000000 42.041790,1.000000 61.168480,1.273842 
	C62.516182,2.365123 63.758091,3.182562 65.000000,4.000000 
	C65.000000,5.066669 65.000000,6.133338 65.000000,7.600004 
z"/>
<path fill="#000000" opacity="1.000000" stroke="none" 
	d="
M3.500000,1.000000 
	C3.182562,2.241906 2.365124,3.483812 1.273843,4.362859 
	C1.263320,2.731102 -0.085014,0.387769 3.500000,1.000000 
z"/>
<path fill="#000000" opacity="1.000000" stroke="none" 
	d="
M62.500000,65.000000 
	C62.768162,63.913761 63.536320,62.827526 64.652237,61.870644 
	C64.736679,63.268898 66.085014,65.612228 62.500000,65.000000 
z"/>
<path fill="#000000" opacity="1.000000" stroke="none" 
	d="
M1.000001,62.500000 
	C2.086919,62.769020 3.173837,63.538044 4.130377,64.653534 
	C2.731102,64.736679 0.387769,66.085014 1.000001,62.500000 
z"/>
<path fill="#000000" opacity="1.000000" stroke="none" 
	d="
M65.000000,3.500000 
	C63.758091,3.182562 62.516182,2.365123 61.637138,1.273842 
	C63.268898,1.263320 65.612228,-0.085014 65.000000,3.500000 
z"/>
<path fill="#F7FDF8" opacity="1.000000" stroke="none" 
	d="
M56.124313,33.621288 
	C55.215355,37.124310 54.238079,40.205029 53.020290,43.934120 
	C43.683441,57.229580 30.854319,59.409199 18.348549,50.697281 
	C16.683895,49.537632 14.140076,49.639996 12.003403,49.157913 
	C11.722239,49.001694 11.441078,48.845474 11.159916,48.689255 
	C14.121675,43.793396 10.204515,39.452549 9.927577,34.425789 
	C10.073664,14.012816 30.143303,4.634982 44.449444,13.078780 
	C52.062695,17.572283 55.784039,24.417162 56.124313,33.621288 
M30.914978,50.890358 
	C42.878235,51.124203 51.314541,43.354950 50.972416,32.418842 
	C50.655815,22.298674 41.880444,14.365695 31.755033,15.046240 
	C23.217752,15.620042 16.118378,22.385721 15.105354,30.913321 
	C13.996979,40.243603 19.700651,47.806950 30.914978,50.890358 
z"/>
<path fill="#299F3F" opacity="1.000000" stroke="none" 
	d="
M11.869087,49.448647 
	C14.140076,49.639996 16.683895,49.537632 18.348549,50.697281 
	C30.854319,59.409199 43.683441,57.229580 52.959930,44.290459 
	C52.787766,45.623276 52.865349,47.529358 52.015366,48.828625 
	C44.984653,59.575596 30.608553,62.209572 19.933712,55.038628 
	C17.827744,53.623917 15.189154,53.023384 12.901282,51.843586 
	C12.308407,51.537853 12.112838,50.461670 11.869087,49.448647 
z"/>
<path fill="#4DC75C" opacity="1.000000" stroke="none" 
	d="
M30.502041,50.836426 
	C19.700651,47.806950 13.996979,40.243603 15.105354,30.913321 
	C16.118378,22.385721 23.217752,15.620042 31.755033,15.046240 
	C41.880444,14.365695 50.655815,22.298674 50.972416,32.418842 
	C51.314541,43.354950 42.878235,51.124203 30.502041,50.836426 
M28.372786,38.241138 
	C28.656834,38.460377 28.940882,38.679611 29.066637,38.907909 
	C29.066637,38.907909 29.061901,38.749428 29.496222,39.284107 
	C30.133364,39.504177 30.770504,39.724251 31.713064,39.921864 
	C31.946562,39.985626 32.059223,40.138462 32.094658,41.165958 
	C34.735500,42.755283 37.253597,44.703342 40.104477,45.678825 
	C40.807201,45.919277 42.593166,42.993912 43.853573,40.846951 
	C42.517353,38.301865 41.521755,36.096703 37.558796,37.754791 
	C34.359470,39.093384 26.694590,31.409094 28.119919,28.286852 
	C29.965158,24.244774 27.424717,23.562525 25.430981,22.084669 
	C20.451458,24.550770 22.401533,27.833469 23.677105,31.311617 
	C23.684992,31.609772 23.838530,31.839909 24.017118,31.982079 
	C24.017118,31.982079 24.037989,31.861629 24.165762,32.468372 
	C24.483841,32.980091 24.801920,33.491810 25.007149,33.996696 
	C25.007149,33.996696 25.014273,33.883865 25.334900,34.306213 
	C25.594217,34.540909 25.853533,34.775600 25.992126,34.891029 
	C25.992126,34.891029 26.111198,34.770119 26.160513,35.407730 
	C26.524004,35.912697 26.887497,36.417667 27.094923,36.924232 
	C27.094923,36.924232 27.097956,36.768185 27.375360,37.233707 
	C27.654133,37.461601 27.932903,37.689495 28.078640,37.912807 
	C28.078640,37.912807 28.087700,37.780003 28.372786,38.241138 
z"/>
<path fill="#F7FCF8" opacity="1.000000" stroke="none" 
	d="
M32.051044,40.380371 
	C32.059223,40.138462 31.946562,39.985626 31.329184,39.635727 
	C30.317503,39.149536 29.689701,38.949482 29.061901,38.749428 
	C29.061901,38.749428 29.066637,38.907909 29.232037,38.523560 
	C28.960859,38.019474 28.524281,37.899738 28.087700,37.780003 
	C28.087700,37.780003 28.078640,37.912807 28.229877,37.531502 
	C27.953396,37.022858 27.525677,36.895519 27.097956,36.768181 
	C27.097956,36.768185 27.094923,36.924232 27.317884,36.575928 
	C27.064297,35.741791 26.587748,35.255955 26.111198,34.770119 
	C26.111198,34.770119 25.992126,34.891029 26.004158,34.643219 
	C25.682217,34.224895 25.348246,34.054382 25.014273,33.883865 
	C25.014273,33.883865 25.007149,33.996696 25.109371,33.674774 
	C24.820391,32.855782 24.429190,32.358704 24.037989,31.861629 
	C24.037989,31.861629 24.017118,31.982079 24.016947,31.737045 
	C23.936069,31.338171 23.855366,31.184332 23.774660,31.030493 
	C22.401533,27.833469 20.451458,24.550770 25.430981,22.084669 
	C27.424717,23.562525 29.965158,24.244774 28.119919,28.286852 
	C26.694590,31.409094 34.359470,39.093384 37.558796,37.754791 
	C41.521755,36.096703 42.517353,38.301865 43.539841,41.343826 
	C38.869232,46.189125 35.626053,42.015099 32.051044,40.380371 
z"/>
<path fill="#30A445" opacity="1.000000" stroke="none" 
	d="
M32.072853,40.773163 
	C35.626053,42.015099 38.869232,46.189125 43.553631,41.682304 
	C42.593166,42.993912 40.807201,45.919277 40.104477,45.678825 
	C37.253597,44.703342 34.735500,42.755283 32.072853,40.773163 
z"/>
<path fill="#30A445" opacity="1.000000" stroke="none" 
	d="
M29.279060,39.016769 
	C29.689701,38.949482 30.317503,39.149536 31.176474,39.646957 
	C30.770504,39.724251 30.133364,39.504177 29.279060,39.016769 
z"/>
<path fill="#30A445" opacity="1.000000" stroke="none" 
	d="
M26.135857,35.088924 
	C26.587748,35.255955 27.064297,35.741791 27.395918,36.575130 
	C26.887497,36.417667 26.524004,35.912697 26.135857,35.088924 
z"/>
<path fill="#30A445" opacity="1.000000" stroke="none" 
	d="
M24.101875,32.165001 
	C24.429190,32.358704 24.820391,32.855782 25.165794,33.678192 
	C24.801920,33.491810 24.483841,32.980091 24.101875,32.165001 
z"/>
<path fill="#30A445" opacity="1.000000" stroke="none" 
	d="
M27.236658,37.000946 
	C27.525677,36.895519 27.953396,37.022858 28.296394,37.533791 
	C27.932903,37.689495 27.654133,37.461601 27.236658,37.000946 
z"/>
<path fill="#30A445" opacity="1.000000" stroke="none" 
	d="
M28.230244,38.010571 
	C28.524281,37.899738 28.960859,38.019474 29.311184,38.519032 
	C28.940882,38.679611 28.656834,38.460377 28.230244,38.010571 
z"/>
<path fill="#30A445" opacity="1.000000" stroke="none" 
	d="
M25.174587,34.095039 
	C25.348246,34.054382 25.682217,34.224895 26.064520,34.702854 
	C25.853533,34.775600 25.594217,34.540909 25.174587,34.095039 
z"/>
<path fill="#30A445" opacity="1.000000" stroke="none" 
	d="
M23.725883,31.171055 
	C23.855366,31.184332 23.936069,31.338171 24.077248,31.747021 
	C23.838530,31.839909 23.684992,31.609772 23.725883,31.171055 
z"/>
</svg>